<svg width="4096" height="4096" viewBox="0 0 4096 4096" fill="none" xmlns="http://www.w3.org/2000/svg">
<rect width="4096" height="4096" fill="url(#paint0_linear_207_2)"/>
<path d="M3144.35 1826.38C3137.12 1826.38 3130.48 1827.28 3124.46 1829.09C3118.44 1830.9 3112.42 1834.82 3106.39 1840.84L2750.38 2196.85L2425.07 1871.56C2414.23 1860.71 2401.89 1852.58 2388.04 1847.16C2374.18 1841.74 2360.63 1839.03 2347.37 1839.03C2334.12 1839.03 2320.86 1841.74 2307.61 1847.16C2294.36 1852.58 2282.31 1860.71 2271.47 1871.56L2108.81 2036.02C2097.97 2046.86 2089.84 2058.91 2084.41 2072.16C2078.99 2085.41 2076.29 2098.66 2076.29 2111.91C2076.29 2125.17 2078.99 2138.42 2084.41 2151.68C2089.84 2164.93 2097.97 2176.97 2108.81 2187.82L2432.3 2513.12L2081.71 2863.72V3145.64H2363.64L2716.04 2793.23L3041.34 3116.73C3052.19 3127.58 3064.23 3135.7 3077.48 3141.12C3090.74 3146.54 3103.98 3149.26 3117.24 3149.26C3130.49 3149.26 3143.75 3146.54 3157 3141.12C3170.25 3135.7 3182.3 3127.57 3193.14 3116.73L3355.79 2955.89C3366.64 2945.04 3374.77 2933 3380.18 2919.75C3385.6 2906.49 3388.32 2893.23 3388.32 2879.98C3388.32 2866.73 3385.6 2853.17 3380.18 2839.32C3374.76 2825.46 3366.64 2813.12 3355.79 2802.28L3030.5 2476.97L3386.51 2120.96C3392.54 2114.93 3396.46 2108.9 3398.27 2102.88C3400.07 2096.86 3400.97 2090.23 3400.97 2083C3400.97 2075.77 3400.07 2069.14 3398.27 2063.12C3396.45 2057.09 3392.53 2051.07 3386.51 2045.05L3182.3 1840.84C3176.27 1834.81 3170.25 1830.89 3164.23 1829.09C3158.21 1827.28 3151.58 1826.38 3144.35 1826.38ZM2349.18 1949.27L2464.84 2064.93L2378.09 2151.68L2454 2227.58L2540.75 2140.84L2672.67 2272.76L2510.02 2435.41L2186.53 2111.91L2349.18 1949.27ZM3142.55 1958.31L3269.05 2084.81L3142.55 2211.31L3016.03 2084.81L3142.55 1958.31ZM2940.14 2160.7L3066.64 2287.21L2316.64 3037.2H2190.14V2910.7L2940.14 2160.7ZM2952.79 2554.68L3084.71 2686.61L2997.96 2773.36L3073.87 2849.26L3160.62 2762.51L3276.28 2878.17L3113.62 3040.83L2790.13 2717.34L2952.79 2554.68Z" fill="white"/>
<path d="M1517.25 776.529L1486.34 830.397L695.03 2209.02L1718.87 1349.74L3050.58 1367.97L1517.25 776.529ZM1581.02 956.364L2243.91 1212.05L1666.98 1204.17L1226.66 1573.74L1581.02 956.364ZM3023.99 1682.93L2776.7 1696.15L1484.03 1765.34L1313.82 2291.43L1774.12 2579.89L2170.08 2295.74C2158.68 2284.26 2147.28 2272.78 2135.87 2261.3C2114.31 2237 2087.07 2217.05 2068.49 2190.34L1768.66 2405.51L1486.39 2228.62L1591.17 1904.64L2226.6 1870.63C2232.26 1864.97 2237.89 1859.28 2243.56 1853.63C2288.72 1799.53 2376.32 1791.34 2431.73 1834.17C2440.13 1842.17 2448.46 1850.25 2456.81 1858.3L2537.18 1854L2488.42 1889C2523.43 1923.22 2558.14 1957.76 2592.71 1992.44L3023.99 1682.93ZM2154.2 2744.77L892.604 2748.21L2048.85 3177.36V3022.83L1693.21 2890.86L2048.85 2889.87V2850.14C2083.95 2815 2119.08 2779.89 2154.2 2744.77ZM2680.41 2875.43C2579.34 2976.45 2478.3 3077.51 2377.2 3178.49H2051.91L2431.74 3319.47L2680.41 2875.43Z" fill="white"/>
<defs>
<linearGradient id="paint0_linear_207_2" x1="-368" y1="4586" x2="4401.5" y2="-307.5" gradientUnits="userSpaceOnUse">
<stop stop-color="#00A9FE"/>
<stop offset="1" stop-color="#4C00E5"/>
</linearGradient>
</defs>
</svg>
