<svg width="2323" height="2183" viewBox="0 0 2323 2183" fill="none" xmlns="http://www.w3.org/2000/svg">
<path fill-rule="evenodd" clip-rule="evenodd" d="M2021.77 507.632L705.715 0L0 1229.51L878.762 491.985L2021.77 507.632ZM760.448 154.353L1329.4 373.809L834.224 367.046L456.295 684.249L760.448 154.353Z" fill="white"/>
<path d="M1209.89 2078.41H1450.8L1673.91 1855.29L1490.62 2182.61L1209.89 2078.41Z" fill="white"/>
<path d="M1145.19 1921.77V2054.4L169.578 1692.29L1228.58 1689.4L1145.19 1772.79V1813.93L856.736 1814.73L1145.19 1921.77Z" fill="white"/>
<path d="M1998.94 777.968L1780.73 934.562L1688.72 1000.59L1642.47 1033.79L1591.45 982.775L1553.38 944.705L1581.12 924.795L1535.89 927.214L1516.72 908.048L1516.72 908.043C1503.17 894.49 1487.37 884 1469.5 877.012C1453.01 870.565 1435.83 866.946 1418.21 866.946C1400.54 866.946 1383.39 870.583 1367.04 877.267L1367.04 877.271C1349.74 884.347 1334.46 894.82 1321.23 908.044L1321.15 908.132L1289.21 940.422L769.158 968.259L679.22 1246.33L921.5 1398.15L1165.05 1223.37C1169.93 1230.38 1175.46 1236.95 1181.58 1243.08L1181.63 1243.13L1252.07 1313.96L926.181 1547.82L531.108 1300.24L677.201 848.697L1998.94 777.968Z" fill="white"/>
<path d="M2102.25 901.09C2096.04 901.09 2090.35 901.864 2085.18 903.412C2080.01 904.967 2074.84 908.331 2069.67 913.498L1764.11 1219.06L1484.9 939.864C1475.59 930.554 1465 923.572 1453.11 918.921C1441.21 914.27 1429.58 911.947 1418.2 911.947C1406.83 911.947 1395.45 914.27 1384.07 918.921C1372.7 923.575 1362.36 930.557 1353.06 939.864L1213.45 1081.02C1204.14 1090.33 1197.16 1100.66 1192.51 1112.04C1187.85 1123.41 1185.53 1134.79 1185.53 1146.16C1185.53 1157.54 1187.85 1168.92 1192.51 1180.29C1197.16 1191.67 1204.14 1202 1213.45 1211.31L1491.1 1490.52L1190.19 1791.43V2033.41H1432.16L1734.63 1730.94L2013.84 2008.6C2023.14 2017.9 2033.48 2024.88 2044.86 2029.53C2056.23 2034.18 2067.6 2036.51 2078.98 2036.51C2090.35 2036.51 2101.73 2034.18 2113.11 2029.53C2124.48 2024.88 2134.82 2017.9 2144.13 2008.6L2283.73 1870.54C2293.04 1861.23 2300.02 1850.9 2304.67 1839.52C2309.32 1828.15 2311.65 1816.77 2311.65 1805.39C2311.65 1794.02 2309.32 1782.38 2304.67 1770.49C2300.01 1758.6 2293.04 1748.01 2283.73 1738.7L2004.53 1459.49L2310.1 1153.92C2315.27 1148.75 2318.64 1143.57 2320.19 1138.41C2321.73 1133.24 2322.51 1127.55 2322.51 1121.34C2322.51 1115.14 2321.73 1109.45 2320.19 1104.28C2318.63 1099.11 2315.27 1093.94 2310.1 1088.77L2134.82 913.498C2129.65 908.323 2124.48 904.959 2119.31 903.412C2114.14 901.864 2108.46 901.09 2102.25 901.09ZM1419.76 1006.56L1519.03 1105.84L1444.57 1180.29L1509.72 1245.44L1584.18 1170.98L1697.41 1284.21L1557.8 1423.82L1280.15 1146.16L1419.76 1006.56ZM2100.7 1014.32L2209.28 1122.9L2100.7 1231.47L1992.12 1122.9L2100.7 1014.32ZM1926.98 1188.04L2035.55 1296.62L1391.83 1940.34H1283.25V1831.76L1926.98 1188.04ZM1937.83 1526.19L2051.06 1639.42L1976.61 1713.88L2041.76 1779.03L2116.21 1704.57L2215.48 1803.84L2075.88 1943.45L1798.23 1665.8L1937.83 1526.19Z" fill="white"/>
</svg>
