<svg width="24" height="23" viewBox="0 0 24 23" fill="none" xmlns="http://www.w3.org/2000/svg">
<path fill-rule="evenodd" clip-rule="evenodd" d="M20.8922 5.34936L7.29262 0L0 12.9564L9.08083 5.18447L20.8922 5.34936ZM7.85821 1.62655L13.7376 3.93915L8.62059 3.86787L4.71519 7.21052L7.85821 1.62655Z" fill="white"/>
<path d="M12.5026 21.902H14.9921L17.2977 19.5508L15.4036 23L12.5026 21.902Z" fill="white"/>
<path d="M11.834 20.2513V21.6489L1.75236 17.8331L12.6957 17.8027L11.834 18.6814V19.1149L8.85322 19.1233L11.834 20.2513Z" fill="white"/>
<path d="M20.6564 8.19811L16.9727 10.8939L16.0521 9.95517L16.3387 9.74536L15.8713 9.77085L15.6733 9.56889L15.6732 9.56883C15.5332 9.42601 15.3699 9.31547 15.1853 9.24182C15.015 9.17389 14.8374 9.13575 14.6553 9.13575C14.4727 9.13575 14.2955 9.17408 14.1266 9.24452L14.1265 9.24456C13.9477 9.31912 13.7898 9.42949 13.6532 9.56884L13.6523 9.56976L13.3223 9.91003L7.94821 10.2034L7.01883 13.1337L9.52247 14.7335L12.0392 12.8917C12.0896 12.9656 12.1468 13.0348 12.21 13.0994L12.2106 13.0999L12.9384 13.8463L9.57084 16.3107L5.48829 13.7017L6.99797 8.94345L20.6564 8.19811Z" fill="white"/>
<path d="M21.724 9.49555C21.6598 9.49555 21.601 9.50371 21.5476 9.52002C21.4941 9.53641 21.4407 9.57185 21.3873 9.6263L18.2297 12.8463L15.3444 9.90414C15.2482 9.80604 15.1388 9.73246 15.0159 9.68345C14.893 9.63444 14.7728 9.60996 14.6553 9.60996C14.5377 9.60996 14.4201 9.63444 14.3026 9.68345C14.185 9.73249 14.0782 9.80606 13.982 9.90414L12.5394 11.3916C12.4432 11.4897 12.3711 11.5986 12.323 11.7185C12.2749 11.8384 12.2509 11.9582 12.2509 12.0781C12.2509 12.1979 12.2749 12.3179 12.323 12.4377C12.3711 12.5576 12.4432 12.6665 12.5394 12.7646L15.4085 15.7069L12.299 18.8779V21.4278H14.7995L17.9251 18.2404L20.8103 21.1663C20.9065 21.2644 21.0133 21.3379 21.1309 21.3869C21.2484 21.4359 21.3659 21.4605 21.4835 21.4605C21.601 21.4605 21.7186 21.4359 21.8362 21.3869C21.9537 21.3378 22.0605 21.2644 22.1567 21.1663L23.5993 19.7115C23.6955 19.6134 23.7676 19.5045 23.8156 19.3846C23.8637 19.2648 23.8878 19.1448 23.8878 19.025C23.8878 18.9051 23.8637 18.7825 23.8156 18.6572C23.7676 18.5319 23.6955 18.4202 23.5993 18.3222L20.7142 15.3799L23.8718 12.1599C23.9253 12.1054 23.96 12.0508 23.976 11.9963C23.992 11.9419 24 11.882 24 11.8166C24 11.7511 23.992 11.6912 23.976 11.6368C23.9599 11.5823 23.9252 11.5278 23.8718 11.4733L22.0605 9.6263C22.0071 9.57177 21.9537 9.53632 21.9003 9.52002C21.8468 9.50371 21.7881 9.49555 21.724 9.49555ZM14.6713 10.607L15.6971 11.6531L14.9277 12.4377L15.6009 13.1243L16.3703 12.3397L17.5404 13.5329L16.0978 15.004L13.2286 12.0781L14.6713 10.607ZM21.7079 10.6887L22.8299 11.8329L21.7079 12.9771L20.5858 11.8329L21.7079 10.6887ZM19.9127 12.5193L21.0347 13.6636L14.3827 20.447H13.2607V19.3028L19.9127 12.5193ZM20.0249 16.0828L21.195 17.276L20.4256 18.0606L21.0988 18.7471L21.8682 17.9625L22.894 19.0086L21.4514 20.4798L18.5823 17.5539L20.0249 16.0828Z" fill="white"/>
</svg>
