# Blender 4.0.2
# www.blender.org
o Cone
v 0.000000 0.000000 -0.100000
v 0.058779 0.000000 -0.080902
v 0.095106 0.000000 -0.030902
v 0.095106 0.000000 0.030902
v 0.058779 0.000000 0.080902
v 0.000000 0.000000 0.100000
v -0.058779 0.000000 0.080902
v -0.095106 0.000000 0.030902
v -0.095106 0.000000 -0.030902
v -0.058779 0.000000 -0.080902
v 0.000000 0.400000 0.000000
vn 0.3006 0.2313 -0.9253
vn 0.7871 0.2313 -0.5718
vn 0.9729 0.2313 -0.0000
vn 0.7871 0.2313 0.5718
vn 0.3006 0.2313 0.9253
vn -0.3006 0.2313 0.9253
vn -0.7871 0.2313 0.5718
vn -0.9729 0.2313 -0.0000
vn -0.0000 -1.0000 -0.0000
vn -0.7871 0.2313 -0.5718
vn -0.3006 0.2313 -0.9253
s 0
f 1//1 11//1 2//1
f 2//2 11//2 3//2
f 3//3 11//3 4//3
f 4//4 11//4 5//4
f 5//5 11//5 6//5
f 6//6 11//6 7//6
f 7//7 11//7 8//7
f 8//8 11//8 9//8
f 1//9 2//9 3//9 4//9 5//9 6//9 7//9 8//9 9//9 10//9
f 9//10 11//10 10//10
f 10//11 11//11 1//11
